<mxfile host="app.diagrams.net" modified="2021-10-11T13:17:48.755Z" agent="5.0 (Windows NT 10.0; Win64; x64) AppleWebKit/537.36 (KHTML, like Gecko) Chrome/94.0.4606.71 Safari/537.36" etag="WFiwRaQKXWM2I4HHd-h4" version="15.5.0" type="github">
  <diagram id="5-kdSeo1fVE4DurPXAhW" name="Page-1">
    <mxGraphModel dx="1038" dy="491" grid="1" gridSize="10" guides="1" tooltips="1" connect="1" arrows="1" fold="1" page="1" pageScale="1" pageWidth="827" pageHeight="1169" math="0" shadow="0">
      <root>
        <mxCell id="0" />
        <mxCell id="1" parent="0" />
        <mxCell id="XJOZOIEwxUYS5-JD0P_h-2" value="&lt;font style=&quot;font-size: 18px&quot;&gt;开始&lt;/font&gt;" style="rounded=1;whiteSpace=wrap;html=1;" vertex="1" parent="1">
          <mxGeometry x="342" y="160" width="80" height="50" as="geometry" />
        </mxCell>
        <mxCell id="XJOZOIEwxUYS5-JD0P_h-3" value="结束" style="rounded=1;whiteSpace=wrap;html=1;fontSize=18;" vertex="1" parent="1">
          <mxGeometry x="342" y="521" width="80" height="50" as="geometry" />
        </mxCell>
        <mxCell id="XJOZOIEwxUYS5-JD0P_h-4" value="输入待检测文本" style="rounded=0;whiteSpace=wrap;html=1;fontSize=18;" vertex="1" parent="1">
          <mxGeometry x="315" y="250" width="133" height="50" as="geometry" />
        </mxCell>
        <mxCell id="XJOZOIEwxUYS5-JD0P_h-5" value="" style="endArrow=classic;html=1;rounded=0;fontSize=18;edgeStyle=orthogonalEdgeStyle;entryX=0.5;entryY=0;entryDx=0;entryDy=0;" edge="1" parent="1">
          <mxGeometry width="50" height="50" relative="1" as="geometry">
            <mxPoint x="383" y="301" as="sourcePoint" />
            <mxPoint x="383" y="341" as="targetPoint" />
            <Array as="points">
              <mxPoint x="383" y="301" />
            </Array>
          </mxGeometry>
        </mxCell>
        <mxCell id="XJOZOIEwxUYS5-JD0P_h-6" value="" style="endArrow=classic;html=1;rounded=0;fontSize=18;edgeStyle=orthogonalEdgeStyle;" edge="1" parent="1">
          <mxGeometry width="50" height="50" relative="1" as="geometry">
            <mxPoint x="382" y="210" as="sourcePoint" />
            <mxPoint x="382" y="250" as="targetPoint" />
            <Array as="points">
              <mxPoint x="382" y="250" />
            </Array>
          </mxGeometry>
        </mxCell>
        <mxCell id="XJOZOIEwxUYS5-JD0P_h-7" value="" style="endArrow=classic;html=1;rounded=0;fontSize=18;edgeStyle=orthogonalEdgeStyle;" edge="1" parent="1">
          <mxGeometry width="50" height="50" relative="1" as="geometry">
            <mxPoint x="382" y="500" as="sourcePoint" />
            <mxPoint x="382" y="520" as="targetPoint" />
            <Array as="points">
              <mxPoint x="382" y="490" />
            </Array>
          </mxGeometry>
        </mxCell>
        <mxCell id="XJOZOIEwxUYS5-JD0P_h-8" value="&lt;font style=&quot;font-size: 18px&quot;&gt;将结果返回前端&lt;/font&gt;" style="rounded=0;whiteSpace=wrap;html=1;" vertex="1" parent="1">
          <mxGeometry x="331" y="441" width="101" height="48" as="geometry" />
        </mxCell>
        <mxCell id="XJOZOIEwxUYS5-JD0P_h-9" value="&lt;span style=&quot;font-size: 18px&quot;&gt;服务器调用模型预测得出结果&lt;/span&gt;" style="rounded=0;whiteSpace=wrap;html=1;" vertex="1" parent="1">
          <mxGeometry x="312.75" y="342" width="137.5" height="58" as="geometry" />
        </mxCell>
        <mxCell id="XJOZOIEwxUYS5-JD0P_h-10" value="" style="endArrow=classic;html=1;rounded=0;fontSize=18;edgeStyle=orthogonalEdgeStyle;entryX=0.5;entryY=0;entryDx=0;entryDy=0;" edge="1" parent="1">
          <mxGeometry width="50" height="50" relative="1" as="geometry">
            <mxPoint x="383" y="401" as="sourcePoint" />
            <mxPoint x="383" y="441" as="targetPoint" />
            <Array as="points">
              <mxPoint x="383" y="401" />
            </Array>
          </mxGeometry>
        </mxCell>
      </root>
    </mxGraphModel>
  </diagram>
</mxfile>
